<?xml version="1.0" encoding="UTF-8" standalone="no"?>
<!-- Created with Inkscape (http://www.inkscape.org/) -->

<svg
   xmlns:dc="http://purl.org/dc/elements/1.1/"
   xmlns:cc="http://creativecommons.org/ns#"
   xmlns:rdf="http://www.w3.org/1999/02/22-rdf-syntax-ns#"
   xmlns:svg="http://www.w3.org/2000/svg"
   xmlns="http://www.w3.org/2000/svg"
   xmlns:sodipodi="http://sodipodi.sourceforge.net/DTD/sodipodi-0.dtd"
   xmlns:inkscape="http://www.inkscape.org/namespaces/inkscape"
   viewBox="0 0 64 64"
   height="64"
   width="64"
   version="1.1"
   id="svg2"
   inkscape:version="0.48.3.1 r9886"
   sodipodi:docname="icon.svg"
   inkscape:export-filename="C:\dev\mangaupdates-notifier\src\data\images\icon.png"
   inkscape:export-xdpi="90"
   inkscape:export-ydpi="90">
  <defs
     id="defs12" />
  <sodipodi:namedview
     pagecolor="#ffffff"
     bordercolor="#666666"
     borderopacity="1"
     objecttolerance="10"
     gridtolerance="10"
     guidetolerance="10"
     inkscape:pageopacity="0"
     inkscape:pageshadow="2"
     inkscape:window-width="1858"
     inkscape:window-height="1058"
     id="namedview10"
     showgrid="false"
     inkscape:zoom="6.2803345"
     inkscape:cx="14.648901"
     inkscape:cy="22.00946"
     inkscape:window-x="1274"
     inkscape:window-y="-6"
     inkscape:window-maximized="1"
     inkscape:current-layer="g6" />
  <metadata
     id="metadata4">
    <rdf:RDF>
      <cc:Work
         rdf:about="">
        <dc:format>image/svg+xml</dc:format>
        <dc:type
           rdf:resource="http://purl.org/dc/dcmitype/StillImage" />
        <dc:title />
      </cc:Work>
    </rdf:RDF>
  </metadata>
  <g
     transform="matrix(0.82534341,0,0,0.82534341,-81.654632,-305.91173)"
     id="g6">
    <path
       style="fill:#ee9132;fill-opacity:1;stroke:#000000;stroke-width:0.50000000000000000;stroke-miterlimit:4;stroke-dasharray:none"
       d="m 172.44,387.66 c -0.10638,4e-5 -0.31248,0.034 -0.63122,0.14027 l -1.4027,0.21041 c -0.66427,0.39855 -1.2572,0.66897 -1.7884,0.84162 -0.53143,0.17273 -1.1243,0.51221 -1.7884,1.017 l -0.3156,0.17534 c -0.37202,0.10632 -0.68972,0.22637 -0.9819,0.38574 l -0.42081,0.38574 -0.31561,0.17534 c -0.66426,0.6111 -1.1626,1.0669 -1.5079,1.3326 -0.34545,0.26572 -0.5649,0.51914 -0.63122,0.77149 -0.0664,0.25244 -0.34539,0.50585 -0.87669,0.77148 l -0.87669,0.56109 c -0.61113,0.21258 -1.17,0.80547 -1.6482,1.7884 l -1.052,0.59615 -1.543,1.4378 c -0.50485,0.45169 -0.73647,0.87245 -0.73642,1.2975 -1.0096,0.37198 -1.8692,1.1976 -2.5599,2.4197 l -0.87669,0.70135 c -0.66426,0.26571 -0.98195,0.66947 -0.9819,1.2274 -5e-5,0.53139 -0.43887,0.84055 -1.2624,0.94682 v -0.52601 l -0.0701,-0.24547 c 0.29218,-0.47819 0.48129,-0.87824 0.56108,-1.1572 0.0797,-0.27893 0.34156,-0.76876 0.80655,-1.4728 0.46488,-0.70403 0.77031,-1.2836 0.87669,-1.7884 l 0.31561,-1.2975 c 0.10627,-0.15938 0.20076,-0.31823 0.28054,-0.49095 0.0797,-0.17266 0.14397,-0.36178 0.21041,-0.56108 0.0664,-0.19922 0.13539,-0.40536 0.17533,-0.63122 0.0398,-0.2258 0.0787,-0.44892 0.10515,-0.70135 0.0265,-0.25235 0.035,-0.51906 0.035,-0.77149 -5e-5,-0.25236 0.0339,-0.48027 0.14027,-0.66628 l 0.28054,-0.52602 c -5e-5,-0.15936 -0.18069,-0.29643 -0.52601,-0.45587 v -0.31561 l -0.0701,-0.70135 v -0.14027 l -0.38574,-0.42082 c -0.53142,-0.71728 -1.1073,-1.2071 -1.7183,-1.4728 l -0.73642,-0.14028 c -0.50485,-0.15932 -0.8916,-0.24542 -1.1572,-0.24547 -0.21261,5e-5 -0.39694,0.0691 -0.59615,0.17534 -0.19932,0.10631 -0.42723,0.17057 -0.66628,0.21041 -0.23917,0.0399 -0.83205,0.27151 -1.7884,0.73641 -0.9565,0.46498 -1.5324,0.89903 -1.7183,1.2975 -0.18603,0.39855 -0.5425,0.6398 -1.0871,0.66628 -0.54469,0.0266 -1.0478,0.3273 -1.4728,0.91176 -0.42513,0.58453 -0.8459,0.92404 -1.2975,1.017 -0.4517,0.093 -0.82146,0.26887 -1.0871,0.56108 -0.26571,0.29228 -0.38578,0.67055 -0.38574,1.1222 v 0.38575 c -0.0798,0.2657 -0.1658,0.42084 -0.24547,0.42081 h -0.0701 c -0.21258,-0.15933 -0.3762,-0.24544 -0.45588,-0.24548 -0.31885,4e-5 -0.61105,0.16739 -0.87669,0.52602 -0.26572,0.3587 -0.69975,0.65939 -1.2975,0.91176 -0.59782,0.25243 -0.87673,0.78103 -0.87669,1.578 -0.13288,0.13287 -0.41657,0.39106 -0.84162,0.73642 h -0.24547 l -0.31561,0.0701 c -0.10627,0.37199 -0.68221,0.8788 -1.7183,1.543 l -1.9638,2.3846 c -0.10627,0.0532 -0.30394,0.22529 -0.59615,0.49095 l -0.31561,0.49095 c -0.15944,0.10629 -0.35707,0.29064 -0.59615,0.59614 -0.23914,0.30556 -0.51804,0.53347 -0.87669,0.66629 -0.35869,0.13286 -0.57813,0.3135 -0.63121,0.52601 -0.50482,1.1425 -0.96915,1.7911 -1.3676,1.9638 -0.39855,0.17271 -0.66896,0.33155 -0.84162,0.49095 -0.17272,0.15942 -0.51219,0.4649 -1.017,0.87668 -0.50482,0.41183 -0.78854,0.69925 -0.84162,0.91176 -0.23914,0.0532 -0.52284,0.29436 -0.84163,0.66629 l -0.3156,0.56108 c -0.45169,0.31883 -0.66631,0.51647 -0.66629,0.59615 -2e-5,0.63764 -0.44735,1.0754 -1.2975,1.3676 l 0.10515,-0.28054 c 0.39849,-0.61105 0.66041,-1.2379 0.80655,-1.9287 0.14611,-0.69075 0.40801,-1.1806 0.80656,-1.4728 -3e-5,-0.23909 0.42552,-1.0732 1.2624,-2.4547 0.83686,-1.3815 1.3437,-2.172 1.543,-2.3846 0.19923,-0.21252 0.44415,-0.65506 0.73642,-1.3326 0.29222,-0.67745 0.54192,-1.1891 0.70136,-1.5079 0.92984,-0.92984 1.5057,-1.604 1.7183,-2.069 0.2125,-0.46491 0.45743,-0.88195 0.73642,-1.2274 0.27893,-0.34536 0.42078,-0.54296 0.42081,-0.59615 l 0.56108,-1.4728 c 1.0893,-1.2221 1.6131,-2.3909 1.6131,-3.5068 -3e-5,-0.10623 -0.0777,-0.26509 -0.21041,-0.49095 -0.13283,-0.22579 -0.17537,-0.38467 -0.17533,-0.49094 -0.6111,-1.8597 -1.6428,-2.8054 -3.0509,-2.8054 l -0.87653,-0.0701 -1.0871,0.21041 c -1.0096,0.10631 -1.594,0.15733 -1.7534,0.21041 -0.37198,0.21258 -1.1758,0.48777 -2.3846,0.80655 -1.2089,0.31885 -2.0127,0.58927 -2.3846,0.84162 -0.37198,0.25244 -0.57814,0.38579 -0.63122,0.38575 h -0.73642 c -0.15943,0.10631 -0.43463,0.31244 -0.80656,0.63121 l -0.17533,0.17534 c -1.355,0.45169 -2.051,0.71841 -2.1041,0.77149 -0.61108,0.74394 -1.0839,1.0871 -1.4027,1.0871 h -1.052 l -0.24547,0.10521 -0.24548,0.59615 c -0.21256,0.0532 -0.48297,0.15623 -0.84162,0.3156 -0.35868,0.15945 -0.88357,0.33528 -1.5079,0.56109 -0.62436,0.22585 -1.0669,0.47078 -1.3326,0.73642 l -1.1572,0.56108 c -2.0723,0.82364 -3.2496,1.3655 -3.5418,1.578 -0.29225,0.21257 -0.60145,0.36663 -0.94683,0.52601 -2.2317,1.1159 -3.3314,2.3622 -3.3314,3.7172 0,0.95646 0.18434,1.4548 0.59615,1.5079 0.4118,0.0532 0.79006,0.17802 1.1222,0.35068 0.3321,0.17275 0.57702,0.2455 0.73642,0.24547 0.47822,3e-5 1.0323,-0.27038 1.6832,-0.84162 0.6509,-0.57118 0.98188,-1.0913 0.98189,-1.543 v -0.45588 c 0.26567,-0.13281 0.57486,-0.36072 0.94682,-0.66629 0.37195,-0.30549 0.93084,-0.64498 1.6482,-1.017 0.71732,-0.37191 2.4014,-1.4461 5.0848,-3.2262 0.0797,4e-5 0.17427,-0.10781 0.28054,-0.28054 0.10627,-0.17265 0.30389,-0.42607 0.59615,-0.77148 h 0.77149 l 0.17534,-0.0701 c 0.37193,-0.34534 0.80597,-0.52124 1.2975,-0.56108 0.49148,-0.0398 1.0323,-0.27251 1.6832,-0.63122 0.65089,-0.35863 1.0339,-0.52598 1.0871,-0.52601 l 0.91176,-0.21041 c 0.53133,-0.3719 1.4164,-0.87023 2.6651,-1.5079 l 2.3145,-0.42081 c 0.10626,4e-5 0.14023,0.19767 0.14027,0.59615 -4e-5,0.26571 -0.034,0.55791 -0.14027,0.87669 l -0.70136,0.98189 c -0.10627,0.47825 -0.25185,0.98136 -0.49094,1.4728 -0.23914,0.49154 -0.38577,0.75347 -0.38575,0.80655 v 0.38575 l -0.66628,0.91175 c -0.31884,0.31885 -0.52495,0.57705 -0.63122,0.73642 l -0.0701,0.77149 -0.87669,1.7884 c -0.0797,0.0531 -0.1403,0.0872 -0.14027,0.14027 -3e-5,0.10632 0.0945,0.17537 0.28054,0.17534 0.18594,3e-5 0.39208,-0.15511 0.63121,-0.42082 0.10627,3e-5 0.17532,0.0691 0.17534,0.17534 -2e-5,0.31884 -0.20615,0.49098 -0.63121,0.49095 h -0.17534 c -0.186,-0.10621 -0.31454,-0.17532 -0.42081,-0.17534 -0.34542,2e-5 -0.82673,0.78205 -1.4378,2.3495 -0.50481,0.23914 -0.81874,0.54832 -0.91176,0.94682 -0.093,0.39854 -0.1355,0.68703 -0.17534,0.80656 -0.04,0.11953 -0.0701,0.0978 -0.0701,-0.0351 -0.15942,0.29227 -0.25394,0.56747 -0.28054,0.80656 -0.0266,0.23913 -0.19872,0.42348 -0.49094,0.59615 -0.29227,0.17271 -0.57596,0.5122 -0.84163,1.017 l -1.017,1.8586 c -0.31882,0.87676 -0.52494,1.4006 -0.63121,1.6131 -0.66422,0.53138 -1.017,1.0382 -1.017,1.543 v 0.17534 l 0.17534,0.49095 c -0.15943,0.29226 -0.40912,0.5324 -0.70136,0.77148 -0.29226,0.23914 -0.42082,0.41975 -0.42081,0.52602 l 0.24548,0.87669 c -0.15943,-0.0531 -0.26253,-0.0701 -0.31561,-0.0701 -0.15942,10e-6 -0.54618,0.50684 -1.1572,1.543 l 0.0701,0.70135 v 0.0701 c 0,0.10633 -0.0171,0.14029 -0.0701,0.14027 -0.79705,0.61108 -1.3172,1.0196 -1.543,1.1923 -0.22583,0.1727 -0.35068,0.61525 -0.35067,1.3326 -1e-5,0.0532 -0.11155,0.32355 -0.35068,0.84162 -0.23912,0.51808 -0.38945,0.95692 -0.45588,1.2624 -0.0664,0.30554 -0.23378,0.71779 -0.52601,1.2624 -0.29226,0.54464 -0.45588,0.9957 -0.45588,1.3676 l 0.49095,1.4027 c -2e-5,0.21255 0.15033,0.41018 0.45587,0.59615 0.30552,0.18598 0.54193,0.40911 0.70136,0.70135 l 1.6131,0.35068 c 0.63761,-0.26567 1.2305,-0.55416 1.7884,-0.80656 0.55792,-0.25239 1.1944,-0.72893 1.8586,-1.4728 0.66418,-0.7439 1.3601,-1.715 2.104,-2.9106 0.74388,-1.1955 1.2082,-1.866 1.3676,-1.9988 l 0.45588,-0.59615 c 0.69074,-0.58449 1.0436,-1.1434 1.017,-1.6482 l 0.2104,-0.14027 h 0.24548 c 0.10626,10e-6 0.30016,-0.17211 0.52601,-0.49094 0.2258,-0.31881 0.52172,-0.67529 0.94682,-1.0871 0.42507,-0.41179 0.66626,-0.76826 0.66629,-1.0871 l -0.17534,-0.91176 c 0.0532,-0.0531 0.12215,-0.10518 0.17534,-0.1052 0.42505,-0.26566 0.65674,-0.38574 0.73642,-0.38575 h 0.73642 c 0.15938,-0.31879 0.2407,-0.61949 0.28054,-0.91176 0.0398,-0.29223 0.19017,-0.49836 0.45588,-0.63121 0.6376,-0.26567 0.9468,-0.54936 0.94682,-0.84162 l -0.0701,-0.73642 c -4e-5,-0.1594 0.36973,-0.36551 1.0871,-0.63122 l 0.49095,-0.35068 c 0.10627,-0.15938 0.32087,-0.45158 0.66628,-0.87669 0.26565,-0.10625 0.45482,-0.29538 0.56109,-0.56108 0.15936,-0.10624 0.34849,-0.26988 0.56108,-0.45588 l 1.1572,-1.4027 c 0.82356,-0.63761 1.3134,-1.3081 1.4728,-1.9988 l 0.87669,-0.31561 c 0.34534,-0.0531 0.62905,-0.24224 0.84162,-0.56108 0.21251,-0.3188 0.52169,-0.70555 0.94682,-1.1572 l 0.59615,-0.31561 0.63122,-0.66629 c 0.8767,-0.45162 1.3666,-0.74382 1.4728,-0.87669 0.10627,-0.1328 0.31235,-0.33044 0.63122,-0.59615 l 1.0871,-0.73642 c 0.47818,-0.58446 1.0541,-0.96271 1.7183,-1.1222 l 0.56108,-0.52601 c 0.34534,-0.31879 0.57698,-0.52495 0.73642,-0.63122 l 1.1222,-0.63122 c 0.50475,-0.61103 0.9085,-0.99779 1.2274,-1.1572 1.5675,-0.47818 2.3495,-0.95102 2.3495,-1.4027 0.23907,-0.21255 0.43669,-0.31558 0.59615,-0.31561 0.0531,3e-5 0.50891,0.17217 1.3326,0.49095 l -0.35068,0.91175 c -0.50483,0.74394 -0.95216,1.4144 -1.2975,1.9989 l -1.1572,1.9638 v 0.56108 c -1.8598,3.1085 -2.934,4.7331 -3.2262,4.8393 -0.29229,0.10631 -0.43786,0.35971 -0.49094,0.77149 -0.0532,0.41182 -0.20353,0.79009 -0.45588,1.1222 -0.25243,0.33213 -0.45481,0.61103 -0.56108,0.87669 l -0.0701,0.66629 c -0.21259,0.39853 -0.52177,1.0775 -0.94682,2.0339 -4e-5,0.39853 -0.13338,0.71623 -0.38575,0.98189 -0.25243,0.26571 -0.38579,0.47183 -0.38574,0.63122 l 0.17534,0.84162 -0.35068,1.052 c 0.29221,1.169 0.77831,1.8905 1.4027,2.2093 0.6243,0.31883 0.97224,0.49095 1.052,0.49094 0.0531,1e-5 0.15616,-0.0691 0.31561,-0.17533 0.15937,-0.10622 0.27089,-0.14026 0.35068,-0.14028 0.26564,2e-5 0.92759,-0.33097 1.9638,-0.98189 1.0361,-0.6509 1.5514,-1.1152 1.578,-1.3676 0.0265,-0.25238 0.0871,-0.41975 0.14028,-0.52602 l 0.3156,-0.17534 0.24548,-0.38574 c -5e-5,-0.13282 0.23158,-0.30496 0.73642,-0.49095 0.0797,-0.63761 0.43241,-1.222 1.017,-1.7534 0.58444,-0.53134 0.97121,-0.93509 1.1572,-1.2274 0.18593,-0.29222 0.32299,-0.45958 0.45588,-0.52602 0.13279,-0.0664 0.59711,-0.54771 1.3676,-1.4378 0.77042,-0.89 1.23,-1.535 1.4027,-1.8936 0.17263,-0.35864 0.42605,-0.63755 0.77148,-0.87669 0.34533,-0.23909 0.54296,-0.40269 0.59615,-0.45588 l 1.7183,-1.7884 c 0.79699,-0.45164 1.1922,-0.87238 1.1923,-1.2975 -5e-5,-0.0531 -0.10312,-0.20824 -0.31561,-0.42082 0.21249,-0.29222 0.47919,-0.42077 0.77149,-0.42081 0.0531,4e-5 0.25921,0.0776 0.63122,0.21041 l 0.49094,-0.59615 c 0.4516,-0.42505 0.66622,-0.78631 0.66629,-1.052 -7e-5,-0.10623 0.18906,-0.26988 0.56108,-0.45588 l 0.91176,-0.63121 c 0.61099,-0.69074 1.5736,-1.554 2.8755,-2.6301 1.3018,-1.076 2.1396,-1.7634 2.5249,-2.069 0.38517,-0.3055 0.70763,-0.45584 0.94682,-0.45588 0.23905,4e-5 0.52274,-0.16359 0.84163,-0.45588 l 0.38574,-0.59615 c 1.0361,-0.47817 1.5429,-0.78738 1.543,-0.94682 0.29218,-0.61103 0.86806,-0.91172 1.7183,-0.91176 0.10626,4e-5 0.17527,0.034 0.17533,0.14027 -6e-5,0.13289 -0.14192,0.48086 -0.42081,1.052 -0.27903,0.57125 -0.59302,1.0138 -0.91175,1.3326 -0.3189,0.31885 -0.45595,0.59405 -0.45588,0.80655 v 0.17534 c 0.21243,0.29229 0.31554,0.43787 0.3156,0.49094 -6e-5,0.29228 -0.36132,0.55048 -1.052,0.73642 l -0.28054,0.31561 -0.24548,0.59615 c -0.0532,0.18601 -0.10054,0.3279 -0.14027,0.42081 -0.04,0.093 -0.0569,0.12703 -0.0701,0.14027 -0.0131,0.0132 -0.0351,0.0266 -0.035,0 l -0.52602,0.63122 -1.2624,1.8586 c -0.45172,0.55795 -0.79491,1.1386 -1.0871,1.6832 -0.29231,0.54467 -0.54201,0.89264 -0.70135,1.052 l 0.0701,0.63121 c -0.7174,0.61109 -1.0521,1.2986 -1.052,2.069 -0.69083,0.45168 -1.0521,0.91601 -1.052,1.3676 l 0.17534,0.66628 -0.17534,0.31561 c -0.15947,-0.0531 -0.27959,-0.0701 -0.38574,-0.0701 -0.558,3e-5 -0.84168,0.36979 -0.84163,1.0871 -5e-5,0.0532 0.12,0.20722 0.38575,0.52601 h -0.56108 c -0.0266,3e-5 -0.31882,0.38678 -0.87669,1.1572 -0.18604,0.4251 -0.40066,0.88944 -0.66629,1.3676 -0.47828,0.29227 -0.76195,0.67903 -0.84162,1.1572 -0.0798,0.47824 -0.16104,0.79221 -0.28054,0.91176 -0.11965,0.11957 -0.18392,0.26992 -0.21041,0.45588 -0.0266,0.186 -0.17326,0.40062 -0.38574,0.66628 -0.21261,0.2657 -0.32419,0.63068 -0.35068,1.1222 -0.0266,0.49153 -0.10413,0.93886 -0.2104,1.2975 -0.10638,0.35868 -0.14033,0.59508 -0.14027,0.70135 l -0.0702,1.052 c -0.0532,0.15942 -0.10526,0.36554 -0.10515,0.63121 l 0.10515,1.017 -0.10515,0.63122 0.24547,0.80655 c 0.15935,0.61108 0.34848,1.0318 0.56108,1.2975 l 0.24548,0.24547 c 0.15934,0.23912 0.31819,0.42825 0.49094,0.56108 0.17263,0.13285 0.29749,0.22746 0.35068,0.28054 h 0.63122 l 0.0701,0.0701 v 0.73642 c 0.3719,0 0.80594,0.23641 1.2975,0.70135 0.49144,0.46494 1.0891,0.66628 1.7534,0.66628 1.0361,0 1.663,-0.16734 1.9287,-0.52601 0.26561,-0.35866 0.42074,-1.0764 0.42081,-2.1391 -7e-5,-0.13283 -0.13819,-0.41652 -0.35067,-0.84162 -0.21261,-0.42507 -0.54731,-1.2241 -1.052,-2.4197 0.13283,-0.66419 0.17527,-1.0679 0.17534,-1.2274 -1.2e-4,-0.15939 0.052,-0.33152 0.10514,-0.49094 0.0531,-0.1594 0.0787,-0.35703 0.10515,-0.59615 0.0265,-0.2391 0.22413,-0.66835 0.59615,-1.3326 0.37188,-0.66418 0.56955,-1.1928 0.59615,-1.578 0.0265,-0.38522 0.0824,-0.63864 0.17534,-0.77149 0.0929,-0.13282 0.14874,-0.28795 0.17533,-0.42081 0.0265,-0.13282 0.12107,-0.25289 0.28054,-0.38575 0.15933,-0.13282 0.24541,-0.30495 0.24548,-0.49094 -7e-5,-0.15939 -0.0341,-0.28795 -0.14027,-0.42081 -0.10638,-0.13282 -0.17541,-0.22735 -0.17534,-0.28054 v -0.17534 l 0.63122,0.0701 c 0.21248,-0.13282 0.4016,-0.67364 0.56108,-1.6832 l 0.35067,-0.17534 c 0.26562,-0.55791 0.55409,-0.96645 0.80656,-1.1923 0.25233,-0.2258 0.6003,-0.71935 1.052,-1.543 0.45158,-0.82358 0.6662,-1.408 0.66628,-1.7534 0.37187,-0.3188 0.6338,-0.65826 0.80656,-1.017 0.17262,-0.35863 0.43931,-0.7199 0.77148,-1.052 0.33203,-0.33207 0.56843,-0.85218 0.70135,-1.543 1.0361,-0.79702 1.5429,-1.3899 1.543,-1.7884 v -0.45588 c 0.31874,-0.23908 0.56843,-0.50577 0.70135,-0.77149 l 0.3858,-1.1923 c 0.42502,-0.45162 0.66988,-0.73535 0.73642,-0.84162 0.0663,-0.10624 0.28576,-0.42871 0.63122,-0.94682 0.34531,-0.51804 0.49086,-0.80549 0.49094,-0.91176 l -0.0701,-0.73642 c -8e-5,-0.0531 0.3176,-0.62898 0.98189,-1.7183 l -0.0701,-2.3145 0.0701,-0.63122 c -8e-5,-2.8427 -1.2634,-4.2431 -3.7873,-4.2432 z m -22.724,17.569 c 0.10627,0 0.14021,0.0171 0.14027,0.0701 v 0.0701 l -0.38575,0.73642 c -0.0532,0.10632 -0.1392,0.1403 -0.24547,0.14027 -0.0531,3e-5 -0.12226,-0.086 -0.17534,-0.24548 0.15936,-0.53133 0.40056,-0.77145 0.66629,-0.77148 z"
       id="path8"
       inkscape:connector-curvature="0" />
  </g>
</svg>
